<?xml version="1.0" encoding="UTF-8" standalone="no"?>
<!DOCTYPE svg PUBLIC "-//W3C//DTD SVG 1.1//EN" "http://www.w3.org/Graphics/SVG/1.1/DTD/svg11.dtd">
<svg width="100%" height="100%" viewBox="0 0 982 324" version="1.1" xmlns="http://www.w3.org/2000/svg" xmlns:xlink="http://www.w3.org/1999/xlink" xml:space="preserve" xmlns:serif="http://www.serif.com/" style="fill-rule:evenodd;clip-rule:evenodd;stroke-linejoin:round;stroke-miterlimit:2;">
    <g transform="matrix(1,0,0,1,-14.2859,-122.65)">
        <g transform="matrix(0.780508,0,0,0.780508,32.2423,77.1693)">
            <path d="M417.85,254.804C427.259,254.804 435.292,251.52 441.949,244.952C448.607,238.294 451.935,230.261 451.935,220.852C451.935,211.355 448.607,203.277 441.949,196.62C435.292,190.051 427.259,186.767 417.85,186.767L402.538,186.767C395.881,186.767 390.688,188.587 386.96,192.226C384.031,195.155 382.167,198.617 381.368,202.611C381.191,203.588 381.102,205.141 381.102,207.271L381.102,254.804L417.85,254.804ZM451.935,321.377C451.935,311.968 448.607,303.935 441.949,297.278C435.914,291.153 428.724,287.869 420.38,287.425L381.102,287.425L381.102,346.009C381.102,350.447 379.549,354.22 376.442,357.326C373.246,360.522 369.43,362.12 364.991,362.12L364.725,362.12C360.198,362.12 356.426,360.522 353.408,357.326C350.212,354.309 348.614,350.536 348.614,346.009L348.614,206.073C348.614,191.782 353.674,179.577 363.793,169.458C374.001,159.25 386.25,154.146 400.541,154.146L417.85,154.146C436.224,154.146 451.891,160.671 464.85,173.719C477.899,186.767 484.423,202.478 484.423,220.852C484.423,239.138 477.899,254.804 464.85,267.853L461.788,271.048L464.984,274.377C477.943,287.336 484.423,303.003 484.423,321.377L484.423,346.009C484.423,350.536 482.825,354.309 479.63,357.326C476.434,360.522 472.662,362.12 468.312,362.12L468.046,362.12C463.697,362.12 459.924,360.522 456.729,357.326C453.533,354.309 451.935,350.536 451.935,346.009L451.935,321.377Z" style="fill-rule:nonzero;"/>
            <path d="M578.424,241.623C566.174,241.623 555.744,245.928 547.134,254.538C538.613,263.148 534.352,273.578 534.352,285.827L534.352,286.759L608.781,253.34C602.212,245.529 592.093,241.623 578.424,241.623ZM648.059,253.473C649.124,255.692 649.656,257.956 649.656,260.263C649.656,262.127 649.301,263.991 648.591,265.855C647.082,270.027 644.242,273.045 640.07,274.909C627.643,280.502 611.311,287.869 591.072,297.012C565.952,308.373 551.218,315.075 546.868,317.117C553.614,325.638 564.133,329.898 578.424,329.898C587.921,329.898 596.531,327.102 604.254,321.51C611.799,316.007 617.08,308.906 620.098,300.207C622.672,292.928 627.821,289.289 635.543,289.289C641.046,289.289 645.44,291.597 648.724,296.213C650.766,299.053 651.787,302.027 651.787,305.133C651.787,306.997 651.432,308.906 650.722,310.859C645.485,326.037 636.298,338.287 623.161,347.607C609.846,357.282 594.934,362.12 578.424,362.12C557.298,362.12 539.234,354.619 524.233,339.618C509.232,324.617 501.732,306.554 501.732,285.428C501.732,264.302 509.232,246.239 524.233,231.238C539.234,216.237 557.298,208.736 578.424,208.736C593.691,208.736 607.627,212.908 620.231,221.252C632.747,229.418 642.023,240.158 648.059,253.473Z" style="fill-rule:nonzero;"/>
            <path d="M748.45,329.233C760.611,329.233 770.996,324.928 779.607,316.318C788.217,307.708 792.522,297.322 792.522,285.162C792.522,272.912 788.217,262.482 779.607,253.872C771.085,245.351 760.7,241.09 748.45,241.09C736.201,241.09 725.771,245.351 717.161,253.872C708.64,262.482 704.379,272.912 704.379,285.162C704.379,297.322 708.64,307.708 717.161,316.318C725.771,324.928 736.201,329.233 748.45,329.233ZM808.632,416.843C804.283,416.843 800.51,415.245 797.315,412.049C794.119,408.854 792.522,405.081 792.522,400.732L792.522,348.805C782.403,357.682 767.712,362.12 748.45,362.12C727.325,362.12 709.261,354.619 694.26,339.618C679.259,324.617 671.759,306.554 671.759,285.428C671.759,264.302 679.259,246.239 694.26,231.238C709.261,216.237 727.325,208.736 748.45,208.736C769.487,208.736 787.506,216.192 802.508,231.105C817.509,246.106 825.054,264.125 825.142,285.162L825.142,400.732C825.142,405.081 823.545,408.854 820.349,412.049C817.154,415.245 813.381,416.843 809.032,416.843L808.632,416.843Z" style="fill-rule:nonzero;"/>
            <path d="M885.723,262.926L923.803,262.926C934.366,262.926 943.376,259.198 950.832,251.742C958.199,244.375 961.883,235.41 961.883,224.847C961.883,214.284 958.199,205.274 950.832,197.818C943.376,190.362 934.366,186.634 923.803,186.634C913.24,186.634 904.231,190.362 896.775,197.818C889.407,205.274 885.723,214.284 885.723,224.847L885.723,262.926ZM885.723,295.547L885.723,346.009C885.723,350.536 884.126,354.309 880.93,357.326C877.735,360.522 873.962,362.12 869.613,362.12L869.213,362.12C864.864,362.12 861.092,360.522 857.896,357.326C854.701,354.309 853.103,350.536 853.103,346.009L853.103,224.847C853.103,205.319 860.026,188.631 873.874,174.784C887.721,161.026 904.364,154.146 923.803,154.146C943.331,154.146 959.974,161.026 973.733,174.784C987.58,188.631 994.503,205.319 994.503,224.847C994.503,244.286 987.58,260.929 973.733,274.776C959.974,288.623 943.331,295.547 923.803,295.547L885.723,295.547Z" style="fill-rule:nonzero;"/>
            <path d="M1093.83,208.736C1114.96,208.736 1133.02,216.237 1148.02,231.238C1163.02,246.239 1170.52,264.302 1170.52,285.428L1170.52,346.009C1170.52,350.536 1168.92,354.309 1165.73,357.326C1162.53,360.522 1158.76,362.12 1154.41,362.12L1154.01,362.12C1149.66,362.12 1145.89,360.522 1142.69,357.326C1139.5,354.309 1137.9,350.536 1137.9,346.009C1127.78,356.75 1113.09,362.12 1093.83,362.12C1072.7,362.12 1054.64,354.619 1039.64,339.618C1024.64,324.617 1017.14,306.554 1017.14,285.428C1017.14,264.302 1024.64,246.239 1039.64,231.238C1054.64,216.237 1072.7,208.736 1093.83,208.736ZM1093.83,241.357C1081.58,241.357 1071.15,245.662 1062.54,254.272C1054.02,262.882 1049.76,273.267 1049.76,285.428C1049.76,297.677 1054.02,308.107 1062.54,316.717C1071.15,325.238 1081.58,329.499 1093.83,329.499C1106.08,329.499 1116.46,325.238 1124.99,316.717C1133.6,308.107 1137.9,297.677 1137.9,285.428C1137.9,273.267 1133.6,262.882 1124.99,254.272C1116.38,245.662 1105.99,241.357 1093.83,241.357Z" style="fill-rule:nonzero;"/>
            <path d="M1218.99,154.146C1223.34,154.146 1227.11,155.7 1230.3,158.806C1233.5,162.002 1235.1,165.819 1235.1,170.257L1235.1,346.009C1235.1,350.536 1233.5,354.309 1230.3,357.326C1227.11,360.522 1223.34,362.12 1218.99,362.12L1218.59,362.12C1214.24,362.12 1210.46,360.522 1207.27,357.326C1204.07,354.309 1202.48,350.536 1202.48,346.009L1202.48,170.257C1202.48,165.819 1204.07,162.002 1207.27,158.806C1210.46,155.7 1214.24,154.146 1218.59,154.146L1218.99,154.146Z" style="fill-rule:nonzero;"/>
        </g>
        <g transform="matrix(0.759018,0,0,0.759018,146.735,284.321)">
            <g transform="matrix(1,0,0,1,-174.5,-213)">
                <g transform="matrix(0.0962067,0,0,-0.0962067,-72.382,458.826)">
                    <g>
                        <path d="M2532,4751C2341,4696 2180,4556 2114,4388L2087,4321L1996,4291C1737,4206 1544,4089 1356,3903C955,3506 815,3016 937,2434L951,2362L921,2309C881,2237 825,2105 788,1995C761,1915 757,1889 754,1763C750,1631 752,1616 775,1554C822,1430 909,1341 1033,1289C1088,1266 1093,1261 1126,1195C1186,1079 1250,991 1355,886L1455,785L1408,715C1383,677 1357,629 1351,609C1339,568 1337,491 1348,474C1372,438 1475,430 1575,457C1641,474 1670,474 1670,455C1670,426 1693,391 1720,380C1741,371 1762,371 1802,379C1850,390 1887,407 2015,480L2055,502L2165,456C2226,430 2284,405 2295,401C2406,352 2527,333 2630,349C2703,361 2841,409 2978,471C3049,503 3051,504 3078,487C3147,442 3285,379 3324,374C3362,368 3371,371 3403,400C3424,418 3440,441 3440,451C3440,474 3462,475 3545,455C3615,438 3688,436 3724,450C3739,455 3757,475 3766,493C3781,524 3781,531 3766,581C3750,635 3709,711 3668,762L3647,789L3676,811C3790,897 3924,1066 3985,1202C4013,1264 4018,1269 4058,1281C4117,1298 4208,1358 4254,1411C4327,1495 4370,1616 4370,1742C4370,1879 4329,2021 4223,2241L4158,2377L4173,2441C4205,2576 4211,2636 4211,2823C4212,3037 4200,3113 4135,3307C4038,3599 3833,3874 3580,4050C3530,4086 3482,4120 3474,4125C3462,4133 3474,4150 3532,4210C3627,4308 3673,4400 3693,4534C3699,4573 3684,4623 3660,4645C3636,4667 3568,4669 3544,4649C3535,4642 3513,4613 3495,4585C3452,4517 3368,4461 3272,4436C3194,4416 3177,4419 3205,4446C3230,4472 3261,4548 3266,4600C3272,4654 3255,4691 3219,4704C3178,4718 3149,4705 3084,4642C3001,4561 2887,4519 2756,4521L2705,4521L2730,4538C2744,4547 2768,4567 2784,4583C2810,4609 2812,4615 2808,4667C2804,4713 2798,4728 2776,4747C2752,4767 2739,4770 2672,4769C2630,4769 2567,4760 2532,4751ZM2146,3712C2286,3668 2435,3555 2510,3437C2529,3406 2548,3381 2552,3380C2555,3380 2579,3409 2604,3445C2698,3576 2818,3669 2952,3712C3028,3737 3195,3742 3280,3721C3361,3702 3486,3637 3558,3579C3635,3515 3727,3395 3775,3295C3794,3254 3822,3174 3837,3118C3882,2942 3871,2708 3807,2501L3785,2426L3752,2492C3715,2568 3660,2622 3583,2657C3536,2679 3518,2682 3447,2678C3356,2675 3348,2671 2769,2385L2552,2278L2514,2303C2459,2337 1836,2639 1773,2661C1708,2685 1601,2686 1537,2664C1472,2642 1397,2572 1361,2499L1331,2439L1317,2473C1309,2492 1292,2547 1279,2596C1258,2674 1256,2708 1256,2875C1256,3053 1258,3071 1283,3153C1350,3371 1477,3543 1653,3654C1694,3679 1803,3719 1863,3730C1936,3743 2074,3734 2146,3712ZM1927,2386C2047,2328 2228,2240 2330,2189C2476,2116 2523,2097 2555,2097C2585,2098 2687,2144 2981,2288C3194,2392 3384,2483 3405,2490C3464,2509 3551,2475 3580,2420C3589,2403 3586,2402 3532,2407C3476,2412 3470,2410 3290,2322C2597,1985 2590,1982 2523,1995C2503,1998 2302,2092 2076,2203L1665,2405L1592,2405C1553,2405 1520,2406 1520,2408C1520,2409 1528,2422 1537,2437C1561,2474 1626,2502 1672,2495C1692,2492 1807,2443 1927,2386ZM1789,2134C1886,2087 2055,2005 2165,1952C2275,1900 2377,1845 2393,1832L2420,1806L2420,1188C2420,848 2416,570 2412,570C2402,570 2052,731 1785,859C1507,991 1505,993 1505,1147L1505,1254L1570,1270C1683,1298 1716,1333 1708,1420C1702,1485 1621,1649 1551,1740L1501,1805L1500,1983L1500,2162L1529,2191C1547,2209 1569,2220 1586,2220C1601,2220 1692,2181 1789,2134ZM3565,2214C3602,2199 3610,2158 3610,1978L3610,1805L3550,1725C3430,1565 3376,1415 3414,1343C3432,1306 3502,1270 3566,1262L3610,1257L3610,1158C3610,1044 3597,1005 3545,966C3527,952 3404,890 3273,829C3142,768 2964,684 2878,644C2791,603 2713,570 2705,570C2692,570 2690,642 2690,1170C2690,1670 2692,1776 2704,1805C2718,1837 2736,1848 2922,1937C3034,1991 3208,2076 3310,2127C3485,2214 3527,2228 3565,2214Z" style="fill-rule:nonzero;"/>
                        <path d="M2146,3712C2286,3668 2435,3555 2510,3437C2529,3406 2548,3381 2552,3380C2555,3380 2579,3409 2604,3445C2698,3576 2818,3669 2952,3712C3028,3737 3195,3742 3280,3721C3361,3702 3486,3637 3558,3579C3635,3515 3727,3395 3775,3295C3794,3254 3822,3174 3837,3118C3882,2942 3871,2708 3807,2501L3785,2426L3752,2492C3715,2568 3660,2622 3583,2657C3536,2679 3518,2682 3447,2678C3356,2675 3348,2671 2769,2385L2552,2278L2514,2303C2459,2337 1836,2639 1773,2661C1708,2685 1601,2686 1537,2664C1472,2642 1397,2572 1361,2499L1331,2439L1317,2473C1309,2492 1292,2547 1279,2596C1258,2674 1256,2708 1256,2875C1256,3053 1258,3071 1283,3153C1350,3371 1477,3543 1653,3654C1694,3679 1803,3719 1863,3730C1936,3743 2074,3734 2146,3712ZM1927,2386C2047,2328 2228,2240 2330,2189C2476,2116 2523,2097 2555,2097C2585,2098 2687,2144 2981,2288C3194,2392 3384,2483 3405,2490C3464,2509 3551,2475 3580,2420C3589,2403 3586,2402 3532,2407C3476,2412 3470,2410 3290,2322C2597,1985 2590,1982 2523,1995C2503,1998 2302,2092 2076,2203L1665,2405L1592,2405C1553,2405 1520,2406 1520,2408C1520,2409 1528,2422 1537,2437C1561,2474 1626,2502 1672,2495C1692,2492 1807,2443 1927,2386ZM1789,2134C1886,2087 2055,2005 2165,1952C2275,1900 2377,1845 2393,1832L2420,1806L2420,1188C2420,848 2416,570 2412,570C2402,570 2052,731 1785,859C1507,991 1505,993 1505,1147L1505,1254L1570,1270C1683,1298 1716,1333 1708,1420C1702,1485 1621,1649 1551,1740L1501,1805L1500,1983L1500,2162L1529,2191C1547,2209 1569,2220 1586,2220C1601,2220 1692,2181 1789,2134ZM3565,2214C3602,2199 3610,2158 3610,1978L3610,1805L3550,1725C3430,1565 3376,1415 3414,1343C3432,1306 3502,1270 3566,1262L3610,1257L3610,1158C3610,1044 3597,1005 3545,966C3527,952 3404,890 3273,829C3142,768 2964,684 2878,644C2791,603 2713,570 2705,570C2692,570 2690,642 2690,1170C2690,1670 2692,1776 2704,1805C2718,1837 2736,1848 2922,1937C3034,1991 3208,2076 3310,2127C3485,2214 3527,2228 3565,2214Z" style="fill:white;fill-rule:nonzero;"/>
                        <path d="M1890,3333C1862,3323 1824,3296 1788,3260C1743,3215 1728,3191 1714,3145C1684,3039 1708,2934 1781,2855C1885,2742 2070,2731 2183,2830C2252,2891 2285,2966 2284,3060C2283,3231 2163,3351 1996,3349C1962,3349 1915,3341 1890,3333ZM2120,3213C2159,3186 2169,3168 2170,3127C2170,3098 2163,3082 2141,3059C2076,2995 1970,3039 1970,3130C1970,3210 2056,3258 2120,3213Z" style="fill-rule:nonzero;"/>
                        <path d="M2994,3326C2932,3297 2874,3240 2846,3180C2814,3111 2817,2992 2852,2924C2944,2749 3165,2707 3310,2837C3376,2896 3404,2963 3404,3060C3404,3148 3381,3205 3322,3265C3238,3350 3101,3376 2994,3326ZM3256,3196C3294,3158 3299,3126 3275,3080C3245,3021 3171,3011 3118,3059C3091,3083 3085,3095 3085,3130C3085,3165 3091,3177 3118,3201C3164,3243 3211,3241 3256,3196Z" style="fill-rule:nonzero;"/>
                        <path d="M2467,2849C2434,2844 2393,2831 2375,2820C2310,2780 2314,2743 2393,2639C2427,2593 2476,2533 2502,2506C2541,2463 2551,2457 2567,2466C2591,2480 2736,2665 2761,2713C2778,2746 2779,2754 2768,2778C2740,2836 2601,2869 2467,2849Z" style="fill-rule:nonzero;"/>
                    </g>
                </g>
            </g>
        </g>
    </g>
</svg>
