<?xml version="1.0" encoding="UTF-8" standalone="no"?>
<!DOCTYPE svg PUBLIC "-//W3C//DTD SVG 1.1//EN" "http://www.w3.org/Graphics/SVG/1.1/DTD/svg11.dtd">
<svg width="100%" height="100%" viewBox="0 0 349 426" version="1.1" xmlns="http://www.w3.org/2000/svg"
     xml:space="preserve"
     style="fill-rule:evenodd;clip-rule:evenodd;stroke-linejoin:round;stroke-miterlimit:2;">
    <g transform="matrix(0.0962067,0,0,-0.0962067,-71.9026,459.042)">
        <g>
            <path d="M2532,4751C2341,4696 2180,4556 2114,4388L2087,4321L1996,4291C1737,4206 1544,4089 1356,3903C955,3506 815,3016 937,2434L951,2362L921,2309C881,2237 825,2105 788,1995C761,1915 757,1889 754,1763C750,1631 752,1616 775,1554C822,1430 909,1341 1033,1289C1088,1266 1093,1261 1126,1195C1186,1079 1250,991 1355,886L1455,785L1408,715C1383,677 1357,629 1351,609C1339,568 1337,491 1348,474C1372,438 1475,430 1575,457C1641,474 1670,474 1670,455C1670,426 1693,391 1720,380C1741,371 1762,371 1802,379C1850,390 1887,407 2015,480L2055,502L2165,456C2226,430 2284,405 2295,401C2406,352 2527,333 2630,349C2703,361 2841,409 2978,471C3049,503 3051,504 3078,487C3147,442 3285,379 3324,374C3362,368 3371,371 3403,400C3424,418 3440,441 3440,451C3440,474 3462,475 3545,455C3615,438 3688,436 3724,450C3739,455 3757,475 3766,493C3781,524 3781,531 3766,581C3750,635 3709,711 3668,762L3647,789L3676,811C3790,897 3924,1066 3985,1202C4013,1264 4018,1269 4058,1281C4117,1298 4208,1358 4254,1411C4327,1495 4370,1616 4370,1742C4370,1879 4329,2021 4223,2241L4158,2377L4173,2441C4205,2576 4211,2636 4211,2823C4212,3037 4200,3113 4135,3307C4038,3599 3833,3874 3580,4050C3530,4086 3482,4120 3474,4125C3462,4133 3474,4150 3532,4210C3627,4308 3673,4400 3693,4534C3699,4573 3684,4623 3660,4645C3636,4667 3568,4669 3544,4649C3535,4642 3513,4613 3495,4585C3452,4517 3368,4461 3272,4436C3194,4416 3177,4419 3205,4446C3230,4472 3261,4548 3266,4600C3272,4654 3255,4691 3219,4704C3178,4718 3149,4705 3084,4642C3001,4561 2887,4519 2756,4521L2705,4521L2730,4538C2744,4547 2768,4567 2784,4583C2810,4609 2812,4615 2808,4667C2804,4713 2798,4728 2776,4747C2752,4767 2739,4770 2672,4769C2630,4769 2567,4760 2532,4751"
                  style="fill-rule:nonzero;"/>
            <path d="M1402.59,1905.87L1468.34,1812.95L1564.54,1707.96C1634.54,1616.96 1702,1485 1708,1420C1716,1333 1683,1298 1570,1270L1505,1254C1509.51,1235.98 1514.03,1217.95 1519.37,1200.16C1532.23,1157.3 1546.93,1116.89 1579,1084.82C1614.22,1049.58 1659.56,1025 1704.7,1005.06C1764.78,978.534 1828.28,959.769 1892.05,944.519C2081.57,899.192 2278.65,883.326 2473.09,881.099C2676,878.775 2881.08,891.995 3080.23,932.421C3152.88,947.169 3225.1,965.685 3294.74,991.304C3341.33,1008.44 3366.54,1020.28 3409.89,1043.27C3441.15,1059.85 3471.18,1081.22 3496.85,1105.6C3513.6,1121.51 3528.72,1139.33 3540.53,1159.24C3547.86,1171.6 3553.87,1184.62 3558.21,1198.33C3562.53,1211.93 3565.14,1225.86 3566.01,1240.1C3566.84,1253.86 3567.38,1268.66 3560.34,1281.08C3553.19,1293.69 3540.28,1302.11 3528.34,1309.45C3521.16,1313.86 3487.46,1331.38 3480.91,1335.22C3438.09,1360.37 3403.08,1394.23 3394.06,1445.08C3381.95,1513.28 3425.21,1577.43 3465.29,1627.78C3475.64,1640.79 3486.8,1653.13 3497.8,1665.6C3510.93,1680.5 3537.23,1707.97 3550,1725L3610,1805L3710.74,1967.44C3795.79,2171.83 3845.78,2349.47 3852.39,2462.41C3916.39,2669.41 3882,2942 3837,3118C3822,3174 3794,3254 3775,3295C3727,3395 3635,3515 3558,3579C3486,3637 3361,3702 3280,3721C3195,3742 3028,3737 2952,3712C2818,3669 2698,3576 2604,3445C2579,3409 2555,3380 2552,3380C2548,3381 2529,3406 2510,3437C2435,3555 2286,3668 2146,3712C2074,3734 1936,3743 1863,3730C1803,3719 1694,3679 1653,3654C1477,3543 1350,3371 1283,3153C1275.07,3126.99 1267.77,3102.45 1263.47,3075.94C1252.87,3010.58 1256.02,2940.5 1256,2875C1255.99,2830.68 1255.71,2750.65 1259.62,2702.12C1262.83,2662.37 1268.63,2634.52 1279,2596C1292,2547 1289,2481.41 1297,2462.41L1344.71,2105.02L1402.59,1905.87Z"
                  style="fill:white;fill-rule:nonzero;"/>
            <g transform="matrix(10.3943,0,0,-10.3943,813.406,4923.13)">
                <path d="M241.206,210.359C237.745,214.487 234.278,218.621 231.1,222.97C227.469,227.938 221.38,235.9 220.993,242.904C220.388,253.838 230.67,263.117 241.206,263.117C251.743,263.117 262.024,253.838 261.419,242.904C261.032,235.9 254.943,227.938 251.313,222.97C248.135,218.621 244.668,214.487 241.206,210.359Z"/>
            </g>
            <path d="M1890,3333C1862,3323 1824,3296 1788,3260C1743,3215 1728,3191 1714,3145C1684,3039 1708,2934 1781,2855C1885,2742 2070,2731 2183,2830C2252,2891 2285,2966 2284,3060C2283,3231 2163,3351 1996,3349C1962,3349 1915,3341 1890,3333ZM2120,3213C2159,3186 2169,3168 2170,3127C2170,3098 2163,3082 2141,3059C2076,2995 1970,3039 1970,3130C1970,3210 2056,3258 2120,3213Z"
                  style="fill-rule:nonzero;"/>
            <path d="M2994,3326C2932,3297 2874,3240 2846,3180C2814,3111 2817,2992 2852,2924C2944,2749 3165,2707 3310,2837C3376,2896 3404,2963 3404,3060C3404,3148 3381,3205 3322,3265C3238,3350 3101,3376 2994,3326ZM3256,3196C3294,3158 3299,3126 3275,3080C3245,3021 3171,3011 3118,3059C3091,3083 3085,3095 3085,3130C3085,3165 3091,3177 3118,3201C3164,3243 3211,3241 3256,3196Z"
                  style="fill-rule:nonzero;"/>
            <path d="M2467,2849C2434,2844 2393,2831 2375,2820C2310,2780 2314,2743 2393,2639C2427,2593 2476,2533 2502,2506C2541,2463 2551,2457 2567,2466C2591,2480 2736,2665 2761,2713C2778,2746 2779,2754 2768,2778C2740,2836 2601,2869 2467,2849Z"
                  style="fill-rule:nonzero;"/>
        </g>
    </g>
</svg>
