<?xml version="1.0" encoding="UTF-8" standalone="no"?>
<!DOCTYPE svg PUBLIC "-//W3C//DTD SVG 1.1//EN" "http://www.w3.org/Graphics/SVG/1.1/DTD/svg11.dtd">
<svg width="100%" height="100%" viewBox="0 0 349 426" version="1.1" xmlns="http://www.w3.org/2000/svg" xmlns:xlink="http://www.w3.org/1999/xlink" xml:space="preserve" xmlns:serif="http://www.serif.com/" style="fill-rule:evenodd;clip-rule:evenodd;stroke-linejoin:round;stroke-miterlimit:2;">
    <g transform="matrix(1,0,0,1,-75.2359,-51.8711)">
        <g transform="matrix(0.0962067,0,0,-0.0962067,2.85393,510.697)">
            <path d="M2532,4751C2341,4696 2180,4556 2114,4388L2087,4321L1996,4291C1737,4206 1544,4089 1356,3903C955,3506 815,3016 937,2434L951,2362L921,2309C881,2237 825,2105 788,1995C761,1915 757,1889 754,1763C750,1631 752,1616 775,1554C822,1430 909,1341 1033,1289C1088,1266 1093,1261 1126,1195C1186,1079 1250,991 1355,886L1455,785L1408,715C1383,677 1357,629 1351,609C1339,568 1337,491 1348,474C1372,438 1475,430 1575,457C1641,474 1670,474 1670,455C1670,426 1693,391 1720,380C1741,371 1762,371 1802,379C1850,390 1887,407 2015,480L2055,502L2165,456C2226,430 2284,405 2295,401C2406,352 2527,333 2630,349C2703,361 2841,409 2978,471C3049,503 3051,504 3078,487C3147,442 3285,379 3324,374C3362,368 3371,371 3403,400C3424,418 3440,441 3440,451C3440,474 3462,475 3545,455C3615,438 3688,436 3724,450C3739,455 3757,475 3766,493C3781,524 3781,531 3766,581C3750,635 3709,711 3668,762L3647,789L3676,811C3790,897 3924,1066 3985,1202C4013,1264 4018,1269 4058,1281C4117,1298 4208,1358 4254,1411C4327,1495 4370,1616 4370,1742C4370,1879 4329,2021 4223,2241L4158,2377L4173,2441C4205,2576 4211,2636 4211,2823C4212,3037 4200,3113 4135,3307C4038,3599 3833,3874 3580,4050C3530,4086 3482,4120 3474,4125C3462,4133 3474,4150 3532,4210C3627,4308 3673,4400 3693,4534C3699,4573 3684,4623 3660,4645C3636,4667 3568,4669 3544,4649C3535,4642 3513,4613 3495,4585C3452,4517 3368,4461 3272,4436C3194,4416 3177,4419 3205,4446C3230,4472 3261,4548 3266,4600C3272,4654 3255,4691 3219,4704C3178,4718 3149,4705 3084,4642C3001,4561 2887,4519 2756,4521L2705,4521L2730,4538C2744,4547 2768,4567 2784,4583C2810,4609 2812,4615 2808,4667C2804,4713 2798,4728 2776,4747C2752,4767 2739,4770 2672,4769C2630,4769 2567,4760 2532,4751ZM2146,3712C2286,3668 2435,3555 2510,3437C2529,3406 2548,3381 2552,3380C2555,3380 2579,3409 2604,3445C2698,3576 2818,3669 2952,3712C3028,3737 3195,3742 3280,3721C3361,3702 3486,3637 3558,3579C3635,3515 3727,3395 3775,3295C3794,3254 3822,3174 3837,3118C3882,2942 3871,2708 3807,2501L3785,2426L3752,2492C3715,2568 3660,2622 3583,2657C3536,2679 3518,2682 3447,2678C3356,2675 3348,2671 2769,2385L2552,2278L2514,2303C2459,2337 1836,2639 1773,2661C1708,2685 1601,2686 1537,2664C1472,2642 1397,2572 1361,2499L1331,2439L1317,2473C1309,2492 1292,2547 1279,2596C1258,2674 1256,2708 1256,2875C1256,3053 1258,3071 1283,3153C1350,3371 1477,3543 1653,3654C1694,3679 1803,3719 1863,3730C1936,3743 2074,3734 2146,3712ZM1927,2386C2047,2328 2228,2240 2330,2189C2476,2116 2523,2097 2555,2097C2585,2098 2687,2144 2981,2288C3194,2392 3384,2483 3405,2490C3464,2509 3551,2475 3580,2420C3589,2403 3586,2402 3532,2407C3476,2412 3470,2410 3290,2322C2597,1985 2590,1982 2523,1995C2503,1998 2302,2092 2076,2203L1665,2405L1592,2405C1553,2405 1520,2406 1520,2408C1520,2409 1528,2422 1537,2437C1561,2474 1626,2502 1672,2495C1692,2492 1807,2443 1927,2386ZM1789,2134C1886,2087 2055,2005 2165,1952C2275,1900 2377,1845 2393,1832L2420,1806L2420,1188C2420,848 2416,570 2412,570C2402,570 2052,731 1785,859C1507,991 1505,993 1505,1147L1505,1254L1570,1270C1683,1298 1716,1333 1708,1420C1702,1485 1621,1649 1551,1740L1501,1805L1500,1983L1500,2162L1529,2191C1547,2209 1569,2220 1586,2220C1601,2220 1692,2181 1789,2134ZM3565,2214C3602,2199 3610,2158 3610,1978L3610,1805L3550,1725C3430,1565 3376,1415 3414,1343C3432,1306 3502,1270 3566,1262L3610,1257L3610,1158C3610,1044 3597,1005 3545,966C3527,952 3404,890 3273,829C3142,768 2964,684 2878,644C2791,603 2713,570 2705,570C2692,570 2690,642 2690,1170C2690,1670 2692,1776 2704,1805C2718,1837 2736,1848 2922,1937C3034,1991 3208,2076 3310,2127C3485,2214 3527,2228 3565,2214Z" style="fill-rule:nonzero;"/>
            <path d="M2146,3712C2286,3668 2435,3555 2510,3437C2529,3406 2548,3381 2552,3380C2555,3380 2579,3409 2604,3445C2698,3576 2818,3669 2952,3712C3028,3737 3195,3742 3280,3721C3361,3702 3486,3637 3558,3579C3635,3515 3727,3395 3775,3295C3794,3254 3822,3174 3837,3118C3882,2942 3871,2708 3807,2501L3785,2426L3752,2492C3715,2568 3660,2622 3583,2657C3536,2679 3518,2682 3447,2678C3356,2675 3348,2671 2769,2385L2552,2278L2514,2303C2459,2337 1836,2639 1773,2661C1708,2685 1601,2686 1537,2664C1472,2642 1397,2572 1361,2499L1331,2439L1317,2473C1309,2492 1292,2547 1279,2596C1258,2674 1256,2708 1256,2875C1256,3053 1258,3071 1283,3153C1350,3371 1477,3543 1653,3654C1694,3679 1803,3719 1863,3730C1936,3743 2074,3734 2146,3712ZM1927,2386C2047,2328 2228,2240 2330,2189C2476,2116 2523,2097 2555,2097C2585,2098 2687,2144 2981,2288C3194,2392 3384,2483 3405,2490C3464,2509 3551,2475 3580,2420C3589,2403 3586,2402 3532,2407C3476,2412 3470,2410 3290,2322C2597,1985 2590,1982 2523,1995C2503,1998 2302,2092 2076,2203L1665,2405L1592,2405C1553,2405 1520,2406 1520,2408C1520,2409 1528,2422 1537,2437C1561,2474 1626,2502 1672,2495C1692,2492 1807,2443 1927,2386ZM1789,2134C1886,2087 2055,2005 2165,1952C2275,1900 2377,1845 2393,1832L2420,1806L2420,1188C2420,848 2416,570 2412,570C2402,570 2052,731 1785,859C1507,991 1505,993 1505,1147L1505,1254L1570,1270C1683,1298 1716,1333 1708,1420C1702,1485 1621,1649 1551,1740L1501,1805L1500,1983L1500,2162L1529,2191C1547,2209 1569,2220 1586,2220C1601,2220 1692,2181 1789,2134ZM3565,2214C3602,2199 3610,2158 3610,1978L3610,1805L3550,1725C3430,1565 3376,1415 3414,1343C3432,1306 3502,1270 3566,1262L3610,1257L3610,1158C3610,1044 3597,1005 3545,966C3527,952 3404,890 3273,829C3142,768 2964,684 2878,644C2791,603 2713,570 2705,570C2692,570 2690,642 2690,1170C2690,1670 2692,1776 2704,1805C2718,1837 2736,1848 2922,1937C3034,1991 3208,2076 3310,2127C3485,2214 3527,2228 3565,2214Z" style="fill:white;fill-rule:nonzero;"/>
            <path d="M1890,3333C1862,3323 1824,3296 1788,3260C1743,3215 1728,3191 1714,3145C1684,3039 1708,2934 1781,2855C1885,2742 2070,2731 2183,2830C2252,2891 2285,2966 2284,3060C2283,3231 2163,3351 1996,3349C1962,3349 1915,3341 1890,3333ZM2120,3213C2159,3186 2169,3168 2170,3127C2170,3098 2163,3082 2141,3059C2076,2995 1970,3039 1970,3130C1970,3210 2056,3258 2120,3213Z" style="fill-rule:nonzero;"/>
            <path d="M2994,3326C2932,3297 2874,3240 2846,3180C2814,3111 2817,2992 2852,2924C2944,2749 3165,2707 3310,2837C3376,2896 3404,2963 3404,3060C3404,3148 3381,3205 3322,3265C3238,3350 3101,3376 2994,3326ZM3256,3196C3294,3158 3299,3126 3275,3080C3245,3021 3171,3011 3118,3059C3091,3083 3085,3095 3085,3130C3085,3165 3091,3177 3118,3201C3164,3243 3211,3241 3256,3196Z" style="fill-rule:nonzero;"/>
            <path d="M2467,2849C2434,2844 2393,2831 2375,2820C2310,2780 2314,2743 2393,2639C2427,2593 2476,2533 2502,2506C2541,2463 2551,2457 2567,2466C2591,2480 2736,2665 2761,2713C2778,2746 2779,2754 2768,2778C2740,2836 2601,2869 2467,2849Z" style="fill-rule:nonzero;"/>
        </g>
    </g>
</svg>
